<?xml version="1.0" encoding="UTF-8"?>
<svg id="Vrstva_2" data-name="Vrstva 2" xmlns="http://www.w3.org/2000/svg" viewBox="0 0 80.39 89.18">
  <defs>
    <style>
      .cls-1 {
        fill: #fff;
      }

      .cls-1, .cls-2, .cls-3 {
        stroke: #1e1e1c;
      }

      .cls-1, .cls-2, .cls-3, .cls-4 {
        stroke-miterlimit: 10;
      }

      .cls-2 {
        fill: #e20e18;
      }

      .cls-3 {
        fill: #034133;
      }

      .cls-4 {
        fill: #25a73d;
        stroke: #1c5527;
      }
    </style>
  </defs>
  <g id="Vrstva_1-2" data-name="Vrstva 1">
    <path class="cls-2" d="M9.39,27.06c6.31-4.69,13.14-6.17,20.49-4.38,2.5.61,4.87,1.43,7.1,2.51.24,1.67.59,3.13,2.54,3.17,1.13-.02,2.03-.5,2.31-2.19,4.61-2.04,8.78-3.74,12.21-3.84,5.7-.34,11.08.47,15.73,3.9,3.62,2.85,6.43,6.01,7.83,9.7,1.82,4.57,2.61,9.49,2.16,14.84-.6,4.97-1.76,9.65-3.65,13.95-1.84,4.4-4.27,8.54-7.23,12.46-2.47,3.28-5.49,6.05-8.88,8.5-3.01,1.83-6.14,2.93-9.45,2.95-2.06.01-4.73-.62-7.96-1.84-1.72-.7-3.33-.57-4.82,0-5.49,2.46-10.46,2.45-14.97.25-5.21-2.79-9.19-6.54-12.15-10.97-4.86-6.55-7.72-13.13-9.2-19.72-1.32-7.32-1.53-14.11.92-19.6,1.59-4.1,3.84-7.45,7.01-9.7Z"/>
    <path class="cls-3" d="M39.53,28.39c1.34.06,2.09-.93,2.28-2.89.19-1.76,1.76-2.99,4.73-3.68,6.34-1.54,11.45-3.55,13.86-6.6,2.37-2.67,4.1-5.58,4.63-8.94.57-3.71.53-6.03-.7-5.61-2.56-.33-5.3-.17-8.15.32-3.69.77-6.95,2.37-9.58,5.14-2.23,2.43-3.82,5.5-4.73,9.26-.33.84-.64,3.3-.95,6.37-.93-2.44-2.09-4.74-3.39-6.94-2.64-4.27-6.19-7.22-10.53-9.04-2.52-1.07-4.42-1.21-5.3.19-.49,2-.01,3.28,1.97,3.46,3.13.68,5.87,2.39,8.25,5.04,1.78,1.98,3.12,4.12,3.96,6.44.65,1.28,1.04,2.98,1.3,4.92.16,1.54.96,2.38,2.35,2.57Z"/>
    <g>
      <path class="cls-1" d="M17.39,62.46c1.83,9.31,4.44,15.23,8.47,15.13l28.45.29c3.32-.91,6.13-2.89,7.28-8.28l2.19-7.56c2.32-1.47,4.09-3.36,4.61-6.23.45-1.6-1.43-5.01-3.81-8.8-2.56-5.06-5.19-9.55-8.37-9.32l-29.92-.05c-2.95.28-5.31,1.29-6.75,3.42l-6.8,12.7c-.16,3.67,1.2,6.66,4.66,8.7Z"/>
      <path class="cls-4" d="M20.7,63.61c13.16.2,26.22.19,39.15-.05-1.28,6.69-3.08,11.97-6.9,11.65h-25.78c-3.12.22-4.94-5.08-6.47-11.61Z"/>
      <path class="cls-4" d="M16.13,55.21c16.51.39,32.77.39,48.76-.05-.44,2.65-2.1,4.3-5.28,4.71l-39.48-.05c-2.24-.8-3.53-2.38-4-4.61Z"/>
      <path class="cls-4" d="M24.81,40.55l29.68-.05c2.36-.02,4.52,1.92,6.42,6.18l2.62,4.8c.1.88-.34,1.37-1.57,1.28l-43.95-.05c-.79-.32-1.01-.97-.24-2.19,2.18-4.42,4.25-9.48,7.04-9.99Z"/>
    </g>
  </g>
</svg>